<mxfile host="app.diagrams.net" modified="2023-03-04T14:14:10.596Z" agent="5.0 (Macintosh; Intel Mac OS X 10_15_7) AppleWebKit/537.36 (KHTML, like Gecko) Chrome/110.0.0.0 Safari/537.36" etag="Ejx7pe5jmqrgwdULQLFZ" version="21.0.2" type="github" pages="2">
  <diagram name="class_instance" id="qh7n_fgweec8IKpvTzGO">
    <mxGraphModel dx="954" dy="648" grid="1" gridSize="10" guides="1" tooltips="1" connect="1" arrows="1" fold="1" page="1" pageScale="1" pageWidth="900" pageHeight="1600" math="0" shadow="0">
      <root>
        <mxCell id="0" />
        <mxCell id="1" parent="0" />
        <mxCell id="CCPqa3TQjakk_iHaV8iA-18" value="" style="rounded=1;whiteSpace=wrap;html=1;fontSize=25;fillColor=none;strokeWidth=1;" parent="1" vertex="1">
          <mxGeometry x="610" y="240" width="230" height="180" as="geometry" />
        </mxCell>
        <mxCell id="CCPqa3TQjakk_iHaV8iA-1" value="&lt;font style=&quot;font-size: 20px;&quot;&gt;&lt;u style=&quot;font-size: 20px;&quot;&gt;&lt;b style=&quot;font-size: 20px;&quot;&gt;class 붕어빵&lt;/b&gt;&lt;/u&gt; &lt;b&gt;{&lt;/b&gt;&lt;br style=&quot;font-size: 20px;&quot;&gt;&lt;b style=&quot;font-size: 20px;&quot;&gt;private:&lt;/b&gt;&lt;br style=&quot;font-size: 20px;&quot;&gt;&lt;span style=&quot;white-space: pre; font-size: 20px;&quot;&gt;	&lt;/span&gt;std::string&lt;span style=&quot;white-space: pre; font-size: 20px;&quot;&gt;	&lt;/span&gt;내용물;&lt;br style=&quot;font-size: 20px;&quot;&gt;&lt;span style=&quot;white-space: pre; font-size: 20px;&quot;&gt;	&lt;/span&gt;std::string&lt;span style=&quot;white-space: pre; font-size: 20px;&quot;&gt;	&lt;/span&gt;굽기;&lt;br style=&quot;font-size: 20px;&quot;&gt;&lt;span style=&quot;white-space: pre; font-size: 20px;&quot;&gt;	&lt;/span&gt;unsigned int&lt;span style=&quot;white-space: pre; font-size: 20px;&quot;&gt;	&lt;/span&gt;가격&lt;br style=&quot;font-size: 20px;&quot;&gt;&lt;b style=&quot;font-size: 20px;&quot;&gt;public:&lt;/b&gt;&lt;br style=&quot;font-size: 20px;&quot;&gt;&lt;span style=&quot;white-space: pre; font-size: 20px;&quot;&gt;	&lt;/span&gt;std::string&lt;span style=&quot;white-space: pre; font-size: 20px;&quot;&gt;	&lt;/span&gt;get_내용물;&lt;br style=&quot;font-size: 20px;&quot;&gt;&lt;span style=&quot;white-space: pre; font-size: 20px;&quot;&gt;&lt;span style=&quot;white-space: pre; font-size: 20px;&quot;&gt;	&lt;/span&gt;unsigned int	&lt;/span&gt;get_가격;&lt;br style=&quot;font-size: 20px;&quot;&gt;&lt;b&gt;};&lt;/b&gt;&lt;/font&gt;" style="text;strokeColor=none;align=left;fillColor=none;html=1;verticalAlign=middle;whiteSpace=wrap;rounded=0;fontSize=20;" parent="1" vertex="1">
          <mxGeometry x="70" y="410" width="320" height="260" as="geometry" />
        </mxCell>
        <mxCell id="CCPqa3TQjakk_iHaV8iA-3" value="" style="shape=flexArrow;endArrow=classic;html=1;rounded=0;fontSize=20;" parent="1" edge="1">
          <mxGeometry width="50" height="50" relative="1" as="geometry">
            <mxPoint x="395" y="440" as="sourcePoint" />
            <mxPoint x="595" y="350" as="targetPoint" />
          </mxGeometry>
        </mxCell>
        <mxCell id="CCPqa3TQjakk_iHaV8iA-4" value="" style="shape=flexArrow;endArrow=classic;html=1;rounded=0;fontSize=20;" parent="1" edge="1">
          <mxGeometry width="50" height="50" relative="1" as="geometry">
            <mxPoint x="395" y="530" as="sourcePoint" />
            <mxPoint x="595" y="530" as="targetPoint" />
          </mxGeometry>
        </mxCell>
        <mxCell id="CCPqa3TQjakk_iHaV8iA-5" value="" style="shape=flexArrow;endArrow=classic;html=1;rounded=0;fontSize=20;" parent="1" edge="1">
          <mxGeometry width="50" height="50" relative="1" as="geometry">
            <mxPoint x="395" y="620" as="sourcePoint" />
            <mxPoint x="585" y="710" as="targetPoint" />
          </mxGeometry>
        </mxCell>
        <mxCell id="CCPqa3TQjakk_iHaV8iA-7" value="&lt;font style=&quot;font-size: 13px;&quot;&gt;&lt;u style=&quot;font-size: 13px;&quot;&gt;&lt;b style=&quot;font-size: 13px;&quot;&gt;붕어빵&lt;span style=&quot;white-space: pre;&quot;&gt;	&lt;/span&gt;팥붕&lt;/b&gt;&lt;/u&gt;&amp;nbsp;&lt;b&gt;{&lt;/b&gt;&lt;br style=&quot;font-size: 13px;&quot;&gt;&lt;b style=&quot;font-size: 13px;&quot;&gt;private:&lt;/b&gt;&lt;br style=&quot;font-size: 13px;&quot;&gt;&lt;span style=&quot;white-space: pre; font-size: 13px;&quot;&gt;	&lt;/span&gt;내용물 = 팥;&lt;br style=&quot;font-size: 13px;&quot;&gt;&lt;span style=&quot;white-space: pre; font-size: 13px;&quot;&gt;	&lt;/span&gt;굽기 = 적당함;&lt;br style=&quot;font-size: 13px;&quot;&gt;&lt;span style=&quot;white-space: pre; font-size: 13px;&quot;&gt;	&lt;/span&gt;가격 = 1000;&lt;br style=&quot;font-size: 13px;&quot;&gt;&lt;b style=&quot;font-size: 13px;&quot;&gt;public:&lt;/b&gt;&lt;br style=&quot;font-size: 13px;&quot;&gt;&lt;span style=&quot;white-space: pre; font-size: 13px;&quot;&gt;	&lt;/span&gt;std::string&lt;span style=&quot;white-space: pre; font-size: 13px;&quot;&gt;	&lt;/span&gt;get_내용물;&lt;br style=&quot;font-size: 13px;&quot;&gt;&lt;span style=&quot;white-space: pre; font-size: 13px;&quot;&gt;&lt;span style=&quot;white-space: pre; font-size: 13px;&quot;&gt;	&lt;/span&gt;unsigned int	&lt;/span&gt;get_가격;&lt;br style=&quot;font-size: 13px;&quot;&gt;&lt;b&gt;};&lt;/b&gt;&lt;/font&gt;" style="text;strokeColor=none;align=left;fillColor=none;html=1;verticalAlign=middle;whiteSpace=wrap;rounded=0;fontSize=13;" parent="1" vertex="1">
          <mxGeometry x="630" y="250" width="210" height="160" as="geometry" />
        </mxCell>
        <mxCell id="CCPqa3TQjakk_iHaV8iA-9" value="&lt;font style=&quot;font-size: 13px;&quot;&gt;&lt;u style=&quot;font-size: 13px;&quot;&gt;&lt;b style=&quot;font-size: 13px;&quot;&gt;붕어빵&lt;span style=&quot;white-space: pre;&quot;&gt;	&lt;/span&gt;덜익은 슈붕&lt;/b&gt;&lt;/u&gt;&lt;b&gt;{&lt;/b&gt;&lt;br style=&quot;font-size: 13px;&quot;&gt;&lt;b style=&quot;font-size: 13px;&quot;&gt;private:&lt;/b&gt;&lt;br style=&quot;font-size: 13px;&quot;&gt;&lt;span style=&quot;white-space: pre; font-size: 13px;&quot;&gt;	&lt;/span&gt;내용물 = 슈크림;&lt;br style=&quot;font-size: 13px;&quot;&gt;&lt;span style=&quot;white-space: pre; font-size: 13px;&quot;&gt;	&lt;/span&gt;굽기 = 덜 익음;&lt;br style=&quot;font-size: 13px;&quot;&gt;&lt;span style=&quot;white-space: pre; font-size: 13px;&quot;&gt;	&lt;/span&gt;가격 = 900;&lt;br style=&quot;font-size: 13px;&quot;&gt;&lt;b style=&quot;font-size: 13px;&quot;&gt;public:&lt;/b&gt;&lt;br style=&quot;font-size: 13px;&quot;&gt;&lt;span style=&quot;white-space: pre; font-size: 13px;&quot;&gt;	&lt;/span&gt;std::string&lt;span style=&quot;white-space: pre; font-size: 13px;&quot;&gt;	&lt;/span&gt;get_내용물;&lt;br style=&quot;font-size: 13px;&quot;&gt;&lt;span style=&quot;white-space: pre; font-size: 13px;&quot;&gt;&lt;span style=&quot;white-space: pre; font-size: 13px;&quot;&gt;	&lt;/span&gt;unsigned int	&lt;/span&gt;get_가격;&lt;br style=&quot;font-size: 13px;&quot;&gt;&lt;b&gt;};&lt;/b&gt;&lt;/font&gt;" style="text;strokeColor=none;align=left;fillColor=none;html=1;verticalAlign=middle;whiteSpace=wrap;rounded=0;fontSize=13;" parent="1" vertex="1">
          <mxGeometry x="630" y="450" width="210" height="160" as="geometry" />
        </mxCell>
        <mxCell id="CCPqa3TQjakk_iHaV8iA-10" value="&lt;font style=&quot;font-size: 13px;&quot;&gt;&lt;u style=&quot;font-size: 13px;&quot;&gt;&lt;b style=&quot;font-size: 13px;&quot;&gt;붕어빵&lt;span style=&quot;white-space: pre;&quot;&gt;	&lt;/span&gt;태운 치붕&lt;/b&gt;&lt;/u&gt; &lt;b&gt;{&lt;/b&gt;&lt;br style=&quot;font-size: 13px;&quot;&gt;&lt;b style=&quot;font-size: 13px;&quot;&gt;private:&lt;/b&gt;&lt;br style=&quot;font-size: 13px;&quot;&gt;&lt;span style=&quot;white-space: pre; font-size: 13px;&quot;&gt;	&lt;/span&gt;내용물 = 피자치즈;&lt;br style=&quot;font-size: 13px;&quot;&gt;&lt;span style=&quot;white-space: pre; font-size: 13px;&quot;&gt;	&lt;/span&gt;굽기 = 태움;&lt;br style=&quot;font-size: 13px;&quot;&gt;&lt;span style=&quot;white-space: pre; font-size: 13px;&quot;&gt;	&lt;/span&gt;가격 = 500;&lt;br style=&quot;font-size: 13px;&quot;&gt;&lt;b style=&quot;font-size: 13px;&quot;&gt;public:&lt;/b&gt;&lt;br style=&quot;font-size: 13px;&quot;&gt;&lt;span style=&quot;white-space: pre; font-size: 13px;&quot;&gt;	&lt;/span&gt;std::string&lt;span style=&quot;white-space: pre; font-size: 13px;&quot;&gt;	&lt;/span&gt;get_내용물;&lt;br style=&quot;font-size: 13px;&quot;&gt;&lt;span style=&quot;white-space: pre; font-size: 13px;&quot;&gt;&lt;span style=&quot;white-space: pre; font-size: 13px;&quot;&gt;	&lt;/span&gt;unsigned int	&lt;/span&gt;get_가격;&lt;br style=&quot;font-size: 13px;&quot;&gt;&lt;b&gt;};&lt;/b&gt;&lt;/font&gt;" style="text;strokeColor=none;align=left;fillColor=none;html=1;verticalAlign=middle;whiteSpace=wrap;rounded=0;fontSize=13;" parent="1" vertex="1">
          <mxGeometry x="630" y="660" width="210" height="160" as="geometry" />
        </mxCell>
        <mxCell id="CCPqa3TQjakk_iHaV8iA-11" value="&lt;b&gt;&lt;i&gt;&lt;font style=&quot;font-size: 21px;&quot;&gt;인스턴스화&lt;/font&gt;&lt;/i&gt;&lt;/b&gt;" style="text;strokeColor=none;align=center;fillColor=none;html=1;verticalAlign=middle;whiteSpace=wrap;rounded=0;fontSize=13;" parent="1" vertex="1">
          <mxGeometry x="420" y="490" width="130" height="30" as="geometry" />
        </mxCell>
        <mxCell id="CCPqa3TQjakk_iHaV8iA-12" value="&amp;lt; 붕어빵 틀 &amp;gt;" style="text;strokeColor=none;align=center;fillColor=none;html=1;verticalAlign=middle;whiteSpace=wrap;rounded=0;fontSize=25;fontStyle=1" parent="1" vertex="1">
          <mxGeometry x="130" y="360" width="150" height="30" as="geometry" />
        </mxCell>
        <mxCell id="CCPqa3TQjakk_iHaV8iA-13" value="&amp;lt; 붕어빵 &amp;gt;" style="text;strokeColor=none;align=center;fillColor=none;html=1;verticalAlign=middle;whiteSpace=wrap;rounded=0;fontSize=25;fontStyle=1" parent="1" vertex="1">
          <mxGeometry x="650" y="190" width="150" height="30" as="geometry" />
        </mxCell>
        <mxCell id="CCPqa3TQjakk_iHaV8iA-17" value="" style="rounded=1;whiteSpace=wrap;html=1;dashed=1;fontSize=25;fillColor=none;strokeWidth=2;" parent="1" vertex="1">
          <mxGeometry x="45" y="410" width="320" height="260" as="geometry" />
        </mxCell>
        <mxCell id="CCPqa3TQjakk_iHaV8iA-21" value="" style="rounded=1;whiteSpace=wrap;html=1;fontSize=25;fillColor=none;strokeWidth=1;arcSize=19;" parent="1" vertex="1">
          <mxGeometry x="610" y="440" width="230" height="180" as="geometry" />
        </mxCell>
        <mxCell id="CCPqa3TQjakk_iHaV8iA-22" value="" style="rounded=1;whiteSpace=wrap;html=1;fontSize=25;fillColor=none;strokeWidth=1;arcSize=19;" parent="1" vertex="1">
          <mxGeometry x="610" y="650" width="230" height="180" as="geometry" />
        </mxCell>
      </root>
    </mxGraphModel>
  </diagram>
  <diagram id="WIpzUV_PuOSby7Lz01ZI" name="template">
    <mxGraphModel dx="1193" dy="810" grid="1" gridSize="10" guides="1" tooltips="1" connect="1" arrows="1" fold="1" page="1" pageScale="1" pageWidth="1600" pageHeight="900" math="0" shadow="0">
      <root>
        <mxCell id="0" />
        <mxCell id="1" parent="0" />
        <mxCell id="eklhsnXHc0dycGqFun7I-1" value="&lt;div style=&quot;text-align: left;&quot;&gt;&lt;span style=&quot;font-size: 20px; background-color: initial;&quot;&gt;&lt;b&gt;&lt;u&gt;template &amp;lt;class T&amp;gt;&lt;/u&gt;&lt;/b&gt;&lt;/span&gt;&lt;/div&gt;&lt;font style=&quot;font-size: 20px;&quot;&gt;&lt;div style=&quot;text-align: left;&quot;&gt;&lt;b&gt;&lt;span style=&quot;background-color: initial;&quot;&gt;T&lt;/span&gt;&lt;span style=&quot;background-color: initial; white-space: pre;&quot;&gt;	&lt;/span&gt;&lt;/b&gt;&lt;span style=&quot;background-color: initial;&quot;&gt;&lt;b&gt;add(T&amp;amp; a, T&amp;amp; b) {&lt;/b&gt;&lt;/span&gt;&lt;/div&gt;&lt;div style=&quot;text-align: left;&quot;&gt;&lt;span style=&quot;background-color: initial; white-space: pre;&quot;&gt;	&lt;/span&gt;&lt;span style=&quot;background-color: initial;&quot;&gt;T&lt;span style=&quot;white-space: pre;&quot;&gt;	&lt;/span&gt;result;&lt;/span&gt;&lt;/div&gt;&lt;div style=&quot;text-align: left;&quot;&gt;&lt;span style=&quot;background-color: initial;&quot;&gt;&lt;span style=&quot;white-space: pre;&quot;&gt;	&lt;/span&gt;T = a + b;&lt;br&gt;&lt;/span&gt;&lt;/div&gt;&lt;div style=&quot;text-align: left;&quot;&gt;&lt;span style=&quot;background-color: initial;&quot;&gt;&lt;span style=&quot;white-space: pre;&quot;&gt;	&lt;/span&gt;return result;&lt;br&gt;&lt;/span&gt;&lt;/div&gt;&lt;div style=&quot;text-align: left;&quot;&gt;&lt;span style=&quot;background-color: initial;&quot;&gt;&lt;b&gt;}&lt;/b&gt;&lt;/span&gt;&lt;/div&gt;&lt;/font&gt;" style="text;strokeColor=none;align=center;fillColor=none;html=1;verticalAlign=middle;whiteSpace=wrap;rounded=0;fontSize=25;fontColor=#000000;" parent="1" vertex="1">
          <mxGeometry x="100" y="360.5" width="260" height="180" as="geometry" />
        </mxCell>
        <mxCell id="eklhsnXHc0dycGqFun7I-3" value="&lt;div style=&quot;text-align: left;&quot;&gt;&lt;span style=&quot;font-size: 20px;&quot;&gt;&lt;b style=&quot;&quot;&gt;add&amp;lt;&lt;font style=&quot;background-color: rgb(255, 255, 153);&quot;&gt;int&lt;/font&gt;&amp;gt;(&lt;font style=&quot;background-color: rgb(255, 255, 153);&quot;&gt;int&lt;/font&gt;&amp;amp; a, &lt;font style=&quot;background-color: rgb(255, 255, 153);&quot;&gt;int&lt;/font&gt;&amp;amp; b) {&lt;/b&gt;&lt;/span&gt;&lt;br&gt;&lt;/div&gt;&lt;font style=&quot;font-size: 20px;&quot;&gt;&lt;div style=&quot;text-align: left;&quot;&gt;&lt;span style=&quot;background-color: initial; white-space: pre;&quot;&gt;	&lt;/span&gt;&lt;u&gt;&lt;font style=&quot;background-color: rgb(255, 255, 153);&quot;&gt;int&lt;/font&gt;&lt;/u&gt;&lt;span style=&quot;background-color: initial;&quot;&gt;&lt;span style=&quot;white-space: pre;&quot;&gt;	&lt;/span&gt;result;&lt;/span&gt;&lt;/div&gt;&lt;div style=&quot;text-align: left;&quot;&gt;&lt;span style=&quot;background-color: initial;&quot;&gt;&lt;span style=&quot;white-space: pre;&quot;&gt;	&lt;/span&gt;result&amp;nbsp;= a + b;&lt;br&gt;&lt;/span&gt;&lt;/div&gt;&lt;div style=&quot;text-align: left;&quot;&gt;&lt;span style=&quot;background-color: initial;&quot;&gt;&lt;span style=&quot;white-space: pre;&quot;&gt;	&lt;/span&gt;return result;&lt;br&gt;&lt;/span&gt;&lt;/div&gt;&lt;div style=&quot;text-align: left;&quot;&gt;&lt;span style=&quot;background-color: initial;&quot;&gt;&lt;b&gt;}&lt;/b&gt;&lt;/span&gt;&lt;/div&gt;&lt;/font&gt;" style="text;strokeColor=none;align=center;fillColor=none;html=1;verticalAlign=middle;whiteSpace=wrap;rounded=0;fontSize=25;fontColor=#000000;" parent="1" vertex="1">
          <mxGeometry x="645" y="115" width="260" height="180" as="geometry" />
        </mxCell>
        <mxCell id="eklhsnXHc0dycGqFun7I-6" value="&lt;div style=&quot;text-align: left;&quot;&gt;&lt;span style=&quot;font-size: 20px;&quot;&gt;&lt;b style=&quot;&quot;&gt;add&amp;lt;&lt;font style=&quot;background-color: rgb(153, 204, 255);&quot;&gt;float&lt;/font&gt;&amp;gt;(&lt;font style=&quot;background-color: rgb(153, 204, 255);&quot;&gt;float&lt;/font&gt;&amp;amp; a, &lt;font style=&quot;background-color: rgb(153, 204, 255);&quot;&gt;float&lt;/font&gt;&amp;amp; b) {&lt;/b&gt;&lt;/span&gt;&lt;br&gt;&lt;/div&gt;&lt;font style=&quot;font-size: 20px;&quot;&gt;&lt;div style=&quot;text-align: left;&quot;&gt;&lt;span style=&quot;background-color: initial; white-space: pre;&quot;&gt;	&lt;/span&gt;&lt;u style=&quot;&quot;&gt;&lt;font style=&quot;background-color: rgb(153, 204, 255);&quot;&gt;float&lt;/font&gt;&lt;/u&gt;&lt;span style=&quot;background-color: initial;&quot;&gt;&lt;span style=&quot;white-space: pre;&quot;&gt;	&lt;/span&gt;result;&lt;/span&gt;&lt;/div&gt;&lt;div style=&quot;text-align: left;&quot;&gt;&lt;span style=&quot;background-color: initial;&quot;&gt;&lt;span style=&quot;white-space: pre;&quot;&gt;	&lt;/span&gt;result&amp;nbsp;= a + b;&lt;br&gt;&lt;/span&gt;&lt;/div&gt;&lt;div style=&quot;text-align: left;&quot;&gt;&lt;span style=&quot;background-color: initial;&quot;&gt;&lt;span style=&quot;white-space: pre;&quot;&gt;	&lt;/span&gt;return result;&lt;br&gt;&lt;/span&gt;&lt;/div&gt;&lt;div style=&quot;text-align: left;&quot;&gt;&lt;span style=&quot;background-color: initial;&quot;&gt;&lt;b&gt;}&lt;/b&gt;&lt;/span&gt;&lt;/div&gt;&lt;/font&gt;" style="text;strokeColor=none;align=center;fillColor=none;html=1;verticalAlign=middle;whiteSpace=wrap;rounded=0;fontSize=25;fontColor=#000000;" parent="1" vertex="1">
          <mxGeometry x="645" y="360" width="310" height="180" as="geometry" />
        </mxCell>
        <mxCell id="eklhsnXHc0dycGqFun7I-7" value="&lt;div style=&quot;text-align: left;&quot;&gt;&lt;span style=&quot;font-size: 20px;&quot;&gt;&lt;b style=&quot;&quot;&gt;add&amp;lt;&lt;font style=&quot;background-color: rgb(153, 255, 153);&quot;&gt;std::string&lt;/font&gt;&amp;gt;(&lt;font style=&quot;background-color: rgb(153, 255, 153);&quot;&gt;std::string&lt;/font&gt;&amp;amp; a, &lt;font style=&quot;background-color: rgb(153, 255, 153);&quot;&gt;std::string&lt;/font&gt;&amp;amp; b) {&lt;/b&gt;&lt;/span&gt;&lt;br&gt;&lt;/div&gt;&lt;font style=&quot;font-size: 20px;&quot;&gt;&lt;div style=&quot;text-align: left;&quot;&gt;&lt;span style=&quot;background-color: initial; white-space: pre;&quot;&gt;	&lt;/span&gt;&lt;font&gt;&lt;u style=&quot;background-color: rgb(153, 255, 153);&quot;&gt;std::string&lt;/u&gt;&lt;/font&gt;&lt;span style=&quot;background-color: initial;&quot;&gt;&lt;span style=&quot;white-space: pre;&quot;&gt;	&lt;/span&gt;result;&lt;/span&gt;&lt;/div&gt;&lt;div style=&quot;text-align: left;&quot;&gt;&lt;span style=&quot;background-color: initial;&quot;&gt;&lt;span style=&quot;white-space: pre;&quot;&gt;	&lt;/span&gt;result&amp;nbsp;= a + b;&lt;br&gt;&lt;/span&gt;&lt;/div&gt;&lt;div style=&quot;text-align: left;&quot;&gt;&lt;span style=&quot;background-color: initial;&quot;&gt;&lt;span style=&quot;white-space: pre;&quot;&gt;	&lt;/span&gt;return result;&lt;br&gt;&lt;/span&gt;&lt;/div&gt;&lt;div style=&quot;text-align: left;&quot;&gt;&lt;span style=&quot;background-color: initial;&quot;&gt;&lt;b&gt;}&lt;/b&gt;&lt;/span&gt;&lt;/div&gt;&lt;/font&gt;" style="text;strokeColor=none;align=center;fillColor=none;html=1;verticalAlign=middle;whiteSpace=wrap;rounded=0;fontSize=25;fontColor=#000000;" parent="1" vertex="1">
          <mxGeometry x="652.5" y="615" width="460" height="180" as="geometry" />
        </mxCell>
        <mxCell id="eklhsnXHc0dycGqFun7I-11" value="" style="rounded=1;whiteSpace=wrap;html=1;labelBackgroundColor=#FF9999;strokeWidth=2;fontSize=20;fontColor=#99CCFF;fillColor=none;dashed=1;" parent="1" vertex="1">
          <mxGeometry x="102.5" y="343" width="255" height="215" as="geometry" />
        </mxCell>
        <mxCell id="eklhsnXHc0dycGqFun7I-12" value="" style="rounded=1;whiteSpace=wrap;html=1;labelBackgroundColor=#FF9999;strokeWidth=1;fontSize=20;fontColor=#99CCFF;fillColor=none;" parent="1" vertex="1">
          <mxGeometry x="620" y="110" width="310" height="190" as="geometry" />
        </mxCell>
        <mxCell id="eklhsnXHc0dycGqFun7I-13" value="" style="rounded=1;whiteSpace=wrap;html=1;labelBackgroundColor=#FF9999;strokeWidth=1;fontSize=20;fontColor=#99CCFF;fillColor=none;" parent="1" vertex="1">
          <mxGeometry x="620" y="355" width="360" height="190" as="geometry" />
        </mxCell>
        <mxCell id="eklhsnXHc0dycGqFun7I-14" value="" style="rounded=1;whiteSpace=wrap;html=1;labelBackgroundColor=#FF9999;strokeWidth=1;fontSize=20;fontColor=#99CCFF;fillColor=none;" parent="1" vertex="1">
          <mxGeometry x="620" y="610" width="525" height="190" as="geometry" />
        </mxCell>
        <mxCell id="82b159CAvZVoef_8ZTEr-5" value="" style="shape=flexArrow;endArrow=classic;html=1;rounded=0;fontSize=20;" edge="1" parent="1">
          <mxGeometry width="50" height="50" relative="1" as="geometry">
            <mxPoint x="400" y="360" as="sourcePoint" />
            <mxPoint x="600" y="250" as="targetPoint" />
          </mxGeometry>
        </mxCell>
        <mxCell id="82b159CAvZVoef_8ZTEr-6" value="" style="shape=flexArrow;endArrow=classic;html=1;rounded=0;fontSize=20;" edge="1" parent="1">
          <mxGeometry width="50" height="50" relative="1" as="geometry">
            <mxPoint x="400" y="450" as="sourcePoint" />
            <mxPoint x="600" y="450" as="targetPoint" />
          </mxGeometry>
        </mxCell>
        <mxCell id="82b159CAvZVoef_8ZTEr-7" value="" style="shape=flexArrow;endArrow=classic;html=1;rounded=0;fontSize=20;" edge="1" parent="1">
          <mxGeometry width="50" height="50" relative="1" as="geometry">
            <mxPoint x="400" y="540" as="sourcePoint" />
            <mxPoint x="590" y="650" as="targetPoint" />
          </mxGeometry>
        </mxCell>
        <mxCell id="82b159CAvZVoef_8ZTEr-8" value="&lt;b&gt;&lt;i&gt;&lt;font style=&quot;font-size: 21px;&quot;&gt;인스턴스화&lt;/font&gt;&lt;/i&gt;&lt;/b&gt;" style="text;strokeColor=none;align=center;fillColor=none;html=1;verticalAlign=middle;whiteSpace=wrap;rounded=0;fontSize=13;" vertex="1" parent="1">
          <mxGeometry x="425" y="410" width="130" height="30" as="geometry" />
        </mxCell>
        <mxCell id="MTuf2Xrz4ercXj-TrD57-1" value="&lt;font style=&quot;font-size: 30px;&quot;&gt;&lt;b&gt;&amp;lt; 함수 템플릿 &amp;gt;&lt;/b&gt;&lt;/font&gt;" style="text;strokeColor=none;align=center;fillColor=none;html=1;verticalAlign=middle;whiteSpace=wrap;rounded=0;" vertex="1" parent="1">
          <mxGeometry x="125" y="290" width="210" height="40" as="geometry" />
        </mxCell>
      </root>
    </mxGraphModel>
  </diagram>
</mxfile>
